<?xml version="1.0" encoding="iso-8859-1"?>
<!-- Generator: Adobe Illustrator 16.0.0, SVG Export Plug-In . SVG Version: 6.00 Build 0)  -->
<!DOCTYPE svg PUBLIC "-//W3C//DTD SVG 1.1//EN" "http://www.w3.org/Graphics/SVG/1.1/DTD/svg11.dtd">
<svg version="1.1" id="Capa_1" xmlns="http://www.w3.org/2000/svg" xmlns:xlink="http://www.w3.org/1999/xlink" x="0px" y="0px"
	 width="603.758px" height="603.759px" viewBox="0 0 603.758 603.759" style="enable-background:new 0 0 603.758 603.759;"
	 xml:space="preserve">
<g>
	<g>
		<path d="M133.595,603.259h336.567c32.059,0,58.141-26.081,58.141-58.14V58.64c0-32.058-26.082-58.14-58.141-58.14H133.595
			c-32.058,0-58.14,26.082-58.14,58.14v486.479C75.456,577.178,101.537,603.259,133.595,603.259z M118.295,58.64
			c0-8.45,6.85-15.3,15.3-15.3h336.567c8.449,0,15.299,6.85,15.299,15.3v486.479c0,8.449-6.85,15.3-15.299,15.3H133.595
			c-8.45,0-15.3-6.851-15.3-15.3V58.64z"/>
		<path d="M470.163,603.759H133.595c-32.334,0-58.64-26.306-58.64-58.64V58.64c0-32.334,26.306-58.64,58.64-58.64h336.567
			c32.335,0,58.641,26.306,58.641,58.64v486.479C528.803,577.453,502.498,603.759,470.163,603.759z M133.595,1
			c-31.783,0-57.64,25.857-57.64,57.64v486.479c0,31.782,25.857,57.64,57.64,57.64h336.567c31.783,0,57.641-25.857,57.641-57.64
			V58.64c0-31.783-25.857-57.64-57.641-57.64H133.595z M470.163,560.919H133.595c-8.712,0-15.8-7.088-15.8-15.8V58.64
			c0-8.712,7.088-15.8,15.8-15.8h336.567c8.712,0,15.799,7.088,15.799,15.8v486.479
			C485.961,553.831,478.875,560.919,470.163,560.919z M133.595,43.84c-8.161,0-14.8,6.639-14.8,14.8v486.479
			c0,8.16,6.639,14.8,14.8,14.8h336.567c8.16,0,14.799-6.64,14.799-14.8V58.64c0-8.161-6.639-14.8-14.799-14.8H133.595z"/>
	</g>
	<g>
		<path d="M191.96,490.746c14.262,14.262,30.882,25.465,49.398,33.296c19.192,8.118,39.554,12.233,60.521,12.233
			c20.967,0,41.329-4.115,60.52-12.233c18.518-7.831,35.137-19.033,49.398-33.296c14.262-14.262,25.465-30.882,33.297-49.397
			c8.117-19.192,12.232-39.555,12.232-60.521c0-20.966-4.115-41.328-12.232-60.521c-7.832-18.515-19.035-35.135-33.297-49.397
			c-14.262-14.262-30.881-25.465-49.398-33.296c-19.191-8.118-39.553-12.234-60.52-12.234c-20.966,0-41.328,4.116-60.521,12.233
			c-18.516,7.832-35.136,19.034-49.398,33.296c-14.263,14.262-25.464,30.882-33.296,49.398
			c-8.117,19.192-12.233,39.555-12.233,60.521c0,20.967,4.117,41.329,12.233,60.521C166.496,459.863,177.698,476.483,191.96,490.746
			z M301.879,268.22c62.192,0,112.608,50.416,112.608,112.607s-50.416,112.608-112.608,112.608s-112.608-50.417-112.608-112.608
			S239.687,268.22,301.879,268.22z"/>
		<path d="M301.879,536.775c-21.035,0-41.462-4.129-60.715-12.272c-18.574-7.855-35.247-19.095-49.557-33.403
			c-14.307-14.307-25.545-30.979-33.403-49.557c-8.144-19.256-12.273-39.684-12.273-60.716c0-21.031,4.129-41.459,12.273-60.715
			c7.858-18.578,19.097-35.251,33.403-49.557c14.307-14.307,30.98-25.545,49.557-33.403c19.254-8.144,39.682-12.273,60.715-12.273
			c21.035,0,41.462,4.129,60.714,12.273c18.574,7.855,35.248,19.093,49.558,33.403c14.308,14.309,25.547,30.981,33.404,49.557
			c8.143,19.253,12.271,39.681,12.271,60.715c0,21.035-4.129,41.463-12.271,60.716c-7.857,18.575-19.097,35.249-33.404,49.557
			c-14.308,14.309-30.981,25.547-49.558,33.403C343.342,532.646,322.915,536.775,301.879,536.775z M301.879,225.879
			c-20.899,0-41.196,4.103-60.326,12.194c-18.458,7.807-35.024,18.974-49.239,33.189c-14.215,14.215-25.382,30.782-33.189,49.239
			c-8.091,19.133-12.194,39.43-12.194,60.326c0,20.897,4.103,41.194,12.194,60.327c7.808,18.457,18.974,35.023,33.189,49.238
			c14.218,14.218,30.785,25.384,49.239,33.188c19.129,8.092,39.425,12.194,60.326,12.194c20.901,0,41.198-4.103,60.326-12.194
			c18.456-7.805,35.022-18.972,49.239-33.188s25.383-30.783,33.189-49.238c8.091-19.13,12.193-39.427,12.193-60.327
			c0-20.899-4.103-41.196-12.193-60.326c-7.807-18.455-18.973-35.021-33.189-49.238c-14.218-14.218-30.784-25.384-49.239-33.189
			C343.076,229.982,322.779,225.879,301.879,225.879z M301.879,493.936c-62.368,0-113.108-50.74-113.108-113.108
			c0-62.367,50.74-113.107,113.108-113.107s113.108,50.74,113.108,113.107C414.987,443.195,364.247,493.936,301.879,493.936z
			 M301.879,268.72c-61.816,0-112.108,50.291-112.108,112.107s50.292,112.108,112.108,112.108
			c61.817,0,112.108-50.292,112.108-112.108S363.696,268.72,301.879,268.72z"/>
	</g>
	<g>
		<path d="M301.879,202.121c35.434,0,64.264-28.829,64.264-64.264c0-35.435-28.83-64.264-64.264-64.264
			c-35.435,0-64.264,28.829-64.264,64.264C237.615,173.292,266.444,202.121,301.879,202.121z M301.879,116.433
			c11.813,0,21.424,9.611,21.424,21.424s-9.611,21.423-21.424,21.423c-11.813,0-21.424-9.61-21.424-21.423
			S290.065,116.433,301.879,116.433z"/>
		<path d="M301.879,202.621c-35.711,0-64.764-29.053-64.764-64.764s29.053-64.764,64.764-64.764
			c35.711,0,64.764,29.053,64.764,64.764S337.59,202.621,301.879,202.621z M301.879,74.093c-35.159,0-63.764,28.604-63.764,63.764
			s28.604,63.764,63.764,63.764c35.16,0,63.764-28.604,63.764-63.764S337.039,74.093,301.879,74.093z M301.879,159.78
			c-12.089,0-21.924-9.835-21.924-21.923c0-12.089,9.835-21.924,21.924-21.924c12.089,0,21.924,9.835,21.924,21.924
			C323.803,149.945,313.968,159.78,301.879,159.78z M301.879,116.933c-11.538,0-20.924,9.386-20.924,20.924
			c0,11.537,9.386,20.923,20.924,20.923s20.924-9.386,20.924-20.923C322.803,126.319,313.417,116.933,301.879,116.933z"/>
	</g>
	<g>
		<path d="M301.879,445.091c35.434,0,64.264-28.828,64.264-64.264c0-35.435-28.83-64.264-64.264-64.264
			c-35.435,0-64.264,28.829-64.264,64.264C237.615,416.263,266.444,445.091,301.879,445.091z M301.879,359.404
			c11.813,0,21.424,9.61,21.424,21.423c0,11.813-9.611,21.424-21.424,21.424c-11.813,0-21.424-9.61-21.424-21.424
			C280.455,369.015,290.065,359.404,301.879,359.404z"/>
		<path d="M301.879,445.591c-35.711,0-64.764-29.053-64.764-64.764s29.053-64.764,64.764-64.764
			c35.711,0,64.764,29.053,64.764,64.764S337.59,445.591,301.879,445.591z M301.879,317.063c-35.159,0-63.764,28.604-63.764,63.764
			s28.604,63.764,63.764,63.764c35.16,0,63.764-28.604,63.764-63.764S337.039,317.063,301.879,317.063z M301.879,402.751
			c-12.089,0-21.924-9.835-21.924-21.924c0-12.088,9.835-21.923,21.924-21.923c12.089,0,21.924,9.835,21.924,21.923
			C323.803,392.916,313.968,402.751,301.879,402.751z M301.879,359.904c-11.538,0-20.924,9.386-20.924,20.923
			s9.386,20.924,20.924,20.924s20.924-9.387,20.924-20.924S313.417,359.904,301.879,359.904z"/>
	</g>
</g>
<g>
</g>
<g>
</g>
<g>
</g>
<g>
</g>
<g>
</g>
<g>
</g>
<g>
</g>
<g>
</g>
<g>
</g>
<g>
</g>
<g>
</g>
<g>
</g>
<g>
</g>
<g>
</g>
<g>
</g>
</svg>
