<svg viewBox="0 0 100 100" xmlns="http://www.w3.org/2000/svg"><path d="m75.2264339 43.7758621v34.5172413c-.0876744 1.131666-.3170056 1.8787924-.6879937 2.2413794-.3709881.3625869-1.1354255.5867248-2.2933121.6724138h-14.9065292c-1.3012145.3659876-2.2185394.6648382-2.7519746.8965517-.5334351.2317135-.9920976.530564-1.3759873.8965517h-2.0639809v-36.7586207c1.0988946-1.0464298 1.9397757-1.7188436 2.5226434-2.0172414.5828676-.2983977 1.347305-.447823 2.2933121-.4482758zm-31.8770392 0c.9460072.0004528 1.7104445.1498781 2.2933122.4482758.5412342.2770836 1.3049393.8766607 2.2911151 1.7987312l.2315283.2185102v36.7586207h-2.063981c-.3838897-.3659877-.8425521-.6648382-1.3759873-.8965517-.4924017-.2138894-1.3119047-.4849843-2.4585089-.8132848l-.2934657-.0832669h-14.9065291c-1.1578867-.085689-1.9223241-.3098269-2.2933122-.6724138-.3424505-.3346957-.5641994-.9970463-.6652465-1.9870518l-.0227471-.2543276v-34.5172413zm6.6506053-25.7758621c21.7118911 0 39.8283179 14.4313115 44.0301301 33.6201171l1.1481197.0005726.1834922.0443783c1.0423285.2906436 2.1278205 1.2471151 3.256476 2.8694148 1.1907821 1.7115987 1.3712037 5.6822773 1.381782 7.53079l-.0000265.362031c-.0010068.1631778-.0032741.2984015-.0057682.4002824-.11035 4.5077624-1.9615514 7.4562027-2.7519746 8.2931035-1.7713859 1.8755449-4.6117117 2.8456544-8.5209772 2.9103284l-.4229402.0034647h-3.8986307v-23.0862069l3.5804271-.0002345c-1.7734436-6.4584284-5.37237-12.2299166-10.2504661-16.8023803-7.0966346-6.652002-16.9005442-10.7663508-27.7296436-10.7663508s-20.633009 4.1143488-27.7296436 10.7663508c-4.8780961 4.5724637-8.4770225 10.3439519-10.2504661 16.8023803l3.5804271.0002345v23.0862069h-3.8986307l-.4229402-.0034647c-3.90926551-.064674-6.74959126-1.0347835-8.52097722-2.9103284-.79042321-.8369008-2.64162462-3.7853411-2.7519746-8.2931035-.00249404-.1018809-.00476136-.2371046-.00576814-.4002824l-.00002654-.362031c.01057834-1.8485127.19099987-5.8191913 1.38178198-7.53079 1.12865552-1.6222997 2.21414752-2.5787712 3.256476-2.8694148l.18349226-.0443783 1.14811963-.0005726c4.20181223-19.1888056 22.31823903-33.6201171 44.03013013-33.6201171z" fill-rule="evenodd"/></svg>