<?xml version="1.0" encoding="iso-8859-1"?>
<!-- Generator: Adobe Illustrator 18.1.1, SVG Export Plug-In . SVG Version: 6.00 Build 0)  -->
<svg version="1.1" id="Capa_1" xmlns="http://www.w3.org/2000/svg" xmlns:xlink="http://www.w3.org/1999/xlink" x="0px" y="0px"
	 viewBox="0 0 80 80" style="enable-background:new 0 0 80 80;" xml:space="preserve">
<g id="_x37_7_Essential_Icons_5_">
	<path id="Browser" d="M78,10H2c-1.1,0-2,0.9-2,2v56c0,1.1,0.9,2,2,2h76c1.1,0,2-0.9,2-2V12C80,10.9,79.1,10,78,10z M76,66H4V26h72
		V66z M76,22H4v-8h72V22z M20,18c0,1.1-0.9,2-2,2H8c-1.1,0-2-0.9-2-2s0.9-2,2-2h10C19.1,16,20,16.9,20,18z"/>
</g>
<g>
</g>
<g>
</g>
<g>
</g>
<g>
</g>
<g>
</g>
<g>
</g>
<g>
</g>
<g>
</g>
<g>
</g>
<g>
</g>
<g>
</g>
<g>
</g>
<g>
</g>
<g>
</g>
<g>
</g>
</svg>
