<?xml version="1.0" encoding="iso-8859-1"?>
<!-- Generator: Adobe Illustrator 17.1.0, SVG Export Plug-In . SVG Version: 6.00 Build 0)  -->
<!DOCTYPE svg PUBLIC "-//W3C//DTD SVG 1.1//EN" "http://www.w3.org/Graphics/SVG/1.1/DTD/svg11.dtd">
<svg version="1.1" id="Capa_1" xmlns="http://www.w3.org/2000/svg" xmlns:xlink="http://www.w3.org/1999/xlink" x="0px" y="0px"
	 viewBox="0 0 295 295" style="enable-background:new 0 0 295 295;" xml:space="preserve">
<path d="M257.666,0.5H38C17.197,0.5,0,17.364,0,38.167v218.666C0,277.636,17.197,294.5,38,294.5h9.833H247.5h10.166
	c20.803,0,37.334-16.864,37.334-37.667V38.167C295,17.364,278.469,0.5,257.666,0.5z M231,31.5v68H63v-68H231z M232,264.5H62v-84h170
	V264.5z M97,81.5H81v-33h16V81.5z M213,213.5H81v-16h132V213.5z M213,246.5H81v-16h132V246.5z"/>
<g>
</g>
<g>
</g>
<g>
</g>
<g>
</g>
<g>
</g>
<g>
</g>
<g>
</g>
<g>
</g>
<g>
</g>
<g>
</g>
<g>
</g>
<g>
</g>
<g>
</g>
<g>
</g>
<g>
</g>
</svg>
