<svg viewBox="0 0 100 100" xmlns="http://www.w3.org/2000/svg"><path d="m50.2918908 2h.1658384c8.7295471 0 16.8199256 2.15471102 24.2711354 6.46413307 7.4512098 4.30942203 13.3453816 10.17585603 17.6825154 17.59930193 4.3371339 7.4234458 6.5333405 15.4998694 6.58862 24.2292705 0 6.4491618-1.2092381 12.634599-3.6277142 18.5563115-2.4184761 5.9217124-5.9079917 11.1904473-10.4685467 15.8062045-9.3975072 9.4526286-20.7954397 14.2342214-34.1937974 14.3447785h-.2487576c-8.7295471 0-16.8061057-2.154711-24.2296758-6.4641331-7.4235701-4.309422-13.3177419-10.1896756-17.68251546-17.6407608-4.36477358-7.4510851-6.54716037-15.5413283-6.54716037-24.2707294-.05527946-6.4491618 1.14013874-12.634599 3.5862546-18.5563114 2.44611585-5.9217125 5.94945123-11.1616565 10.51000623-15.7198319 4.5582517-4.6157573 9.7844634-8.16049298 15.6786353-10.63420719 5.8941718-2.4737142 12.0658925-3.7105713 18.5151622-3.7105713zm6.3364075 64.7207936v-3.6691124c.33398-2.056822.9731487-3.6691125 1.917506-4.8368714.8337985-1.1677589 1.9739372-2.3078786 3.4204163-3.420359 1.7781557-1.3335946 3.140564-2.3343663 4.0872246-3.0023152 1.4464791-.9443415 2.7812476-2.167379 4.0043055-3.6691124 1.1677785-1.4464548 2.1685669-3.1428147 3.0023654-5.0890796.7785189-1.8909864 1.1677784-4.44877 1.1677784-7.6733509 0-2.0015435-.3892595-4.0030869-1.1677784-6.0046303-.8337985-2.1121005-2.168567-4.1412832-4.0043055-6.0875481-2.0015769-1.9462649-4.4753325-3.5032768-7.4212668-4.6710358-3.1693553-1.278316-6.9778794-1.917474-11.4255722-1.917474-3.3927765 0-6.6174113.6115188-9.6739045 1.8345562-2.7800959 1.167759-5.2262117 2.835328-7.3383476 5.002707-2.0568563 2.1121005-3.6138943 4.6146056-4.6711138 7.5075153-1.1124991 2.8353279-1.724028 6.0322696-1.8345869 9.5908249h14.17918c0-1.5570119.1946297-3.1969416.5838892-4.9197891.444539-1.6122905 1.0560679-2.9193974 1.8345869-3.9213207.7232396-1.1124804 1.7516677-2.0303344 3.0852846-2.7535618 1.2230579-.6679489 2.7248164-1.0019233 4.5052755-1.0019233 2.5566748 0 4.5582517.7232274 6.0047307 2.1696822 1.4464791 1.3911764 2.1697186 3.559707 2.1697186 6.505592.1105589 1.778126-.1957814 3.2234293-.9190209 4.3359097-.7232395 1.278316-1.6123174 2.3620055-2.6672337 3.2510685-1.6675969 1.4464549-2.8353753 2.4195873-3.5033354 2.9193974-1.3336168.9443415-2.5566748 2.0844612-3.6691738 3.420359-1.2783374 1.4464548-2.3067656 3.031106-3.0852845 4.7539535-.8890779 1.9462649-1.4176877 4.2541436-1.5858294 6.9236359v4.4188275h13.0114016zm.8361017 5.752422h-15.1776652v14.9286579h15.1776652z"/></svg>