<?xml version="1.0" encoding="UTF-8" standalone="no" ?>
<!DOCTYPE svg PUBLIC "-//W3C//DTD SVG 1.1//EN" "http://www.w3.org/Graphics/SVG/1.1/DTD/svg11.dtd">
<svg xmlns="http://www.w3.org/2000/svg" xmlns:xlink="http://www.w3.org/1999/xlink" version="1.1" width="1080" height="1080" viewBox="0 0 1080 1080" xml:space="preserve">
<desc>Created with Fabric.js 5.2.4</desc>
<defs>
</defs>
<g transform="matrix(1 0 0 1 540 540)" id="2eaf7223-edf3-41f4-87cd-140dfefe6df7"  >
<rect style="stroke: none; stroke-width: 1; stroke-dasharray: none; stroke-linecap: butt; stroke-dashoffset: 0; stroke-linejoin: miter; stroke-miterlimit: 4; fill: rgb(255,255,255); fill-rule: nonzero; opacity: 1; visibility: hidden;" vector-effect="non-scaling-stroke"  x="-540" y="-540" rx="0" ry="0" width="1080" height="1080" />
</g>
<g transform="matrix(1 0 0 1 540 540)" id="ffc97d73-cef4-4ce9-ac8c-df9680434f19"  >
</g>
<g transform="matrix(3.68 0 0 3.68 538.76 170.88)"  >
<g style="" vector-effect="non-scaling-stroke"   >
		<g transform="matrix(0.5 0 0 0.5 -19.62 0.18)"  >
<path style="stroke: none; stroke-width: 0.9999999900659303; stroke-dasharray: none; stroke-linecap: butt; stroke-dashoffset: 0; stroke-linejoin: miter; stroke-miterlimit: 4; fill: rgb(0,0,0); fill-rule: nonzero; opacity: 1;" vector-effect="non-scaling-stroke"  transform=" translate(-243.87, -83.15)" d="M 40.4401 165.2506 L 33.9403 143.478 L 11.8624 143.478 L 5.3669 165.2506 L 0 165.2506 L 17.2302 108.2909 C 17.58 107.2431 18.703 103.0541 18.703 102.1175 C 18.703 97.7061 14.7224 97.7061 12.0399 97.2007 L 12.0399 94.9049 L 28.3185 94.9049 L 49.4458 165.3532 L 40.4401 165.3532 Z M 22.6016 107.9969 L 13.3315 138.5613 L 32.4676 138.5613 Z M 114.6168 165.2506 L 99.2879 132.7017 L 93.921 132.7017 L 93.921 165.2506 L 84.397 165.2506 L 84.397 109.0249 C 84.397 98.9739 84.397 98.5513 76.176 97.0809 L 76.176 94.785 L 98.4279 94.785 C 108.9144 94.785 121.8978 97.5035 121.8978 113.5277 C 121.8978 124.0928 116.8792 129.1442 108.6515 130.8 L 124.5884 165.2506 L 114.7065 165.2506 Z M 99.7212 99.7191 C 93.4895 99.7191 93.921 102.5488 93.921 109.1361 L 93.921 127.7677 L 98.8594 127.7677 C 106.4597 127.7677 112.3648 124.4128 112.3648 114.1703 C 112.3648 103.8079 107.9566 99.7277 99.7289 99.7277 Z M 179.7089 166.2899 C 159.7996 166.2899 154.1727 150.6882 154.1727 129.0268 C 154.1727 108.8136 159.7207 94.4823 178.3404 94.4823 C 184.2306 94.4823 190.1205 95.4275 195.6684 97.6233 L 196.1884 115.1069 L 193.6773 115.1069 C 193.4694 112.8427 192.8473 110.6638 191.861 108.7222 C 189.1785 103.0714 184.6716 99.5078 179.2174 99.5078 C 166.1452 99.5078 164.4124 116.9629 164.4124 129.0268 C 164.4124 142.0076 167.7005 160.4278 181.1306 160.4278 C 186.8474 160.4278 191.618 159.0686 196.2862 155.0996 L 196.2862 162.3209 C 190.8278 165.2593 185.6294 166.2985 179.6578 166.2985 Z M 267.5669 165.2506 L 267.5669 131.0113 L 244.0073 131.0113 L 244.0073 165.242 L 234.4818 165.242 L 234.4818 108.611 C 234.4818 99.425 233.0985 99.2965 225.8178 98.3487 L 225.8178 96.0528 L 244.0073 93.6457 L 244.0073 126.0945 L 267.5669 126.0945 L 267.5669 94.8134 L 277.0876 94.8134 L 277.0876 165.2593 L 267.5669 165.2593 Z M 310.561 165.2506 L 310.561 162.6322 C 317.0559 162.6322 317.9321 160.539 317.9321 152.8951 L 317.9321 107.877 C 317.9321 100.2331 317.064 98.1374 310.561 98.1374 L 310.561 95.5474 L 334.878 95.5474 L 334.878 98.1658 C 328.388 98.1658 327.5234 100.3702 327.5234 107.9054 L 327.5234 152.9211 C 327.5234 160.4562 328.388 162.6607 334.878 162.6607 L 334.878 165.2791 Z M 398.0571 165.2506 L 390.4577 165.2506 L 373.4875 108.2909 C 370.89 99.4991 370.4462 98.8739 363.001 97.1921 L 363.001 94.8962 L 379.7191 94.8962 L 396.6893 152.2612 L 396.8661 152.2612 L 413.4046 94.8962 L 419.0282 94.8962 Z M 487.55 165.2506 L 453.0007 165.2506 L 453.0007 109.0249 C 453.0007 98.9739 452.9218 98.6626 444.7682 97.0809 L 444.7682 94.785 L 486.2576 94.785 L 486.516 110.2754 L 484.0844 110.2754 C 484.0844 102.4202 480.8746 99.7104 474.7362 99.7104 L 467.8964 99.7104 C 463.911 99.7104 462.4379 99.8018 462.4379 105.1474 L 462.4379 125.9747 L 472.9248 125.9747 C 477.8646 125.9747 479.251 123.2562 480.026 117.9193 L 482.4583 117.9193 L 482.4583 139.9032 L 480.026 139.9032 C 480.026 134.0412 477.9514 130.9001 472.9248 130.9001 L 462.4379 130.9001 L 462.4379 154.2346 C 462.4379 159.9966 463.4792 160.2993 467.8964 160.2993 L 477.5103 160.2993 C 483.4002 160.2993 484.8665 156.7443 485.298 150.037 L 487.7304 150.037 Z M 0.5183 69.7032 L 0.5183 67.0848 C 7.0064 67.0848 7.8747 64.9916 7.8747 57.3477 L 7.8747 12.3296 C 7.8747 4.6857 7.0064 2.59 0.5183 2.59 L 0.5183 0 L 24.8368 0 L 24.8368 2.6184 C 18.3374 2.6184 17.4661 4.8228 17.4661 12.358 L 17.4661 57.3737 C 17.4661 64.9088 18.3299 67.1133 24.8368 67.1133 L 24.8368 69.7317 Z" stroke-linecap="round" />
</g>
		<g transform="matrix(0.5 0 0 0.5 -102.34 -24.15)"  >
<path style="stroke: none; stroke-width: 0.9999999900659303; stroke-dasharray: none; stroke-linecap: butt; stroke-dashoffset: 0; stroke-linejoin: miter; stroke-miterlimit: 4; fill: rgb(0,0,0); fill-rule: nonzero; opacity: 1;" vector-effect="non-scaling-stroke"  transform=" translate(-25.63, -35.22)" d="M 42.8724 70.4484 L 14.2942 10.8875 L 14.1224 10.8875 L 14.1224 70.4484 L 8.664 70.4484 L 8.664 13.4862 C 8.664 3.6576 7.3707 4.0691 0 2.3898 L 0 0.0914 L 18.2715 0.0914 L 45.6304 57.0339 L 45.807 57.0339 L 45.807 0 L 51.2606 0 L 51.2606 70.4484 Z" stroke-linecap="round" />
</g>
		<g transform="matrix(0.5 0 0 0.5 -60.94 -24.14)"  >
<path style="stroke: none; stroke-width: 0.9999999900659303; stroke-dasharray: none; stroke-linecap: butt; stroke-dashoffset: 0; stroke-linejoin: miter; stroke-miterlimit: 4; fill: rgb(0,0,0); fill-rule: nonzero; opacity: 1;" vector-effect="non-scaling-stroke"  transform=" translate(-22.52, -35.22)" d="M 42.6043 15.4793 C 42.6043 7.2126 39.6653 4.9143 33.1671 4.9143 L 27.2772 4.9143 L 27.2772 70.4397 L 17.7523 70.4397 L 17.7523 4.9143 L 11.7798 4.9143 C 5.1984 4.9143 2.9473 7.2126 2.4324 15.1766 L 0 15.1766 L 0.3498 0 L 44.6869 0 L 45.0367 15.4904 Z" stroke-linecap="round" />
</g>
		<g transform="matrix(0.5 0 0 0.5 -25.65 -24.15)"  >
<path style="stroke: none; stroke-width: 0.9999999900659303; stroke-dasharray: none; stroke-linecap: butt; stroke-dashoffset: 0; stroke-linejoin: miter; stroke-miterlimit: 4; fill: rgb(0,0,0); fill-rule: nonzero; opacity: 1;" vector-effect="non-scaling-stroke"  transform=" translate(-21.47, -35.22)" d="M 42.7743 70.4484 L 8.2245 70.4484 L 8.2245 14.2399 C 8.2245 4.1889 8.1457 3.8776 0 2.2959 L 0 0 L 41.4814 0 L 41.7405 15.4904 L 39.3087 15.4904 C 39.3087 7.6352 36.1017 4.9254 29.9607 4.9254 L 23.1201 4.9254 C 19.136 4.9254 17.6617 5.0169 17.6617 10.3624 L 17.6617 31.1897 L 28.1491 31.1897 C 33.0917 31.1897 34.4749 28.4712 35.2497 23.1343 L 37.6821 23.1343 L 37.6821 45.1182 L 35.2497 45.1182 C 35.2497 39.2562 33.1752 36.1151 28.1491 36.1151 L 17.6617 36.1151 L 17.6617 59.4496 C 17.6617 65.2116 18.703 65.5143 23.1201 65.5143 L 32.7273 65.5143 C 38.6172 65.5143 40.0822 61.9593 40.514 55.252 L 42.9461 55.252 Z" stroke-linecap="round" />
</g>
		<g transform="matrix(0.5 0 0 0.5 12.73 -24.14)"  >
<path style="stroke: none; stroke-width: 0.9999999900659303; stroke-dasharray: none; stroke-linecap: butt; stroke-dashoffset: 0; stroke-linejoin: miter; stroke-miterlimit: 4; fill: rgb(0,0,0); fill-rule: nonzero; opacity: 1;" vector-effect="non-scaling-stroke"  transform=" translate(-24.2, -35.23)" d="M 38.4392 70.4484 L 23.1121 37.8969 L 17.745 37.8969 L 17.745 70.4484 L 8.2245 70.4484 L 8.2245 14.2399 C 8.2245 4.1889 8.2245 3.7663 0 2.2959 L 0 0 L 22.2519 0 C 32.7421 0 45.7202 2.7185 45.7202 18.7427 C 45.7202 29.3078 40.7066 34.3592 32.4756 36.015 L 48.4045 70.4656 L 38.526 70.4656 Z M 23.5435 4.9254 C 17.3119 4.9254 17.745 7.7551 17.745 14.3425 L 17.745 32.974 L 22.687 32.974 C 30.2872 32.974 36.1929 29.6191 36.1929 19.3766 C 36.1929 9.0118 31.7841 4.9341 23.5516 4.9341 Z" stroke-linecap="round" />
</g>
		<g transform="matrix(0.5 0 0 0.5 51.93 -24.15)"  >
<path style="stroke: none; stroke-width: 1.0000000099340696; stroke-dasharray: none; stroke-linecap: butt; stroke-dashoffset: 0; stroke-linejoin: miter; stroke-miterlimit: 4; fill: rgb(0,0,0); fill-rule: nonzero; opacity: 1;" vector-effect="non-scaling-stroke"  transform=" translate(-25.63, -35.22)" d="M 42.8724 70.4484 L 14.2942 10.8875 L 14.1224 10.8875 L 14.1224 70.4484 L 8.664 70.4484 L 8.664 13.4862 C 8.664 3.6576 7.3707 4.0691 0 2.3898 L 0 0.0914 L 18.2715 0.0914 L 45.6304 57.0339 L 45.807 57.0339 L 45.807 0 L 51.2606 0 L 51.2606 70.4484 Z" stroke-linecap="round" />
</g>
		<g transform="matrix(0.5 0 0 0.5 92.46 -24.15)"  >
<path style="stroke: none; stroke-width: 1.0000000099340696; stroke-dasharray: none; stroke-linecap: butt; stroke-dashoffset: 0; stroke-linejoin: miter; stroke-miterlimit: 4; fill: rgb(0,0,0); fill-rule: nonzero; opacity: 1;" vector-effect="non-scaling-stroke"  transform=" translate(-21.47, -35.22)" d="M 42.7743 70.4484 L 8.2245 70.4484 L 8.2245 14.2399 C 8.2245 4.1889 8.1457 3.8776 0 2.2959 L 0 0 L 41.4814 0 L 41.7405 15.4904 L 39.3087 15.4904 C 39.3087 7.6352 36.1017 4.9254 29.9607 4.9254 L 23.1201 4.9254 C 19.136 4.9254 17.6617 5.0169 17.6617 10.3624 L 17.6617 31.1897 L 28.1491 31.1897 C 33.0917 31.1897 34.4749 28.4712 35.2497 23.1343 L 37.6821 23.1343 L 37.6821 45.1182 L 35.2497 45.1182 C 35.2497 39.2562 33.1752 36.1151 28.1491 36.1151 L 17.6617 36.1151 L 17.6617 59.4496 C 17.6617 65.2116 18.703 65.5143 23.1201 65.5143 L 32.7273 65.5143 C 38.6172 65.5143 40.0822 61.9593 40.514 55.252 L 42.9461 55.252 Z" stroke-linecap="round" />
</g>
		<g transform="matrix(0.5 0 0 0.5 130.3 -24.14)"  >
<path style="stroke: none; stroke-width: 1.0000000099340696; stroke-dasharray: none; stroke-linecap: butt; stroke-dashoffset: 0; stroke-linejoin: miter; stroke-miterlimit: 4; fill: rgb(0,0,0); fill-rule: nonzero; opacity: 1;" vector-effect="non-scaling-stroke"  transform=" translate(-22.52, -35.22)" d="M 42.6043 15.4793 C 42.6043 7.2126 39.6653 4.9143 33.1671 4.9143 L 27.2772 4.9143 L 27.2772 70.4397 L 17.7523 70.4397 L 17.7523 4.9143 L 11.7798 4.9143 C 5.1984 4.9143 2.9473 7.2126 2.4324 15.1766 L 0 15.1766 L 0.3498 0 L 44.6869 0 L 45.0367 15.4904 Z" stroke-linecap="round" />
</g>
</g>
</g>
</svg>