<?xml version="1.0" encoding="UTF-8" standalone="no" ?>
<!DOCTYPE svg PUBLIC "-//W3C//DTD SVG 1.1//EN" "http://www.w3.org/Graphics/SVG/1.1/DTD/svg11.dtd">
<svg xmlns="http://www.w3.org/2000/svg" xmlns:xlink="http://www.w3.org/1999/xlink" version="1.1" width="1080" height="1080" viewBox="0 0 1080 1080" xml:space="preserve">
<desc>Created with Fabric.js 5.2.4</desc>
<defs>
</defs>
<rect x="0" y="0" width="100%" height="100%" fill="transparent"></rect>
<g transform="matrix(1 0 0 1 540 540)" id="d1731a07-6627-4ca8-ad1a-6c7ebf3d7b90"  >
<rect style="stroke: none; stroke-width: 1; stroke-dasharray: none; stroke-linecap: butt; stroke-dashoffset: 0; stroke-linejoin: miter; stroke-miterlimit: 4; fill: rgb(255,255,255); fill-rule: nonzero; opacity: 1; visibility: hidden;" vector-effect="non-scaling-stroke"  x="-540" y="-540" rx="0" ry="0" width="1080" height="1080" />
</g>
<g transform="matrix(1 0 0 1 540 540)" id="2155cac3-9db6-4fb0-9e72-713dfa7de244"  >
</g>
<g transform="matrix(19.37 0 0 19.37 296.96 325.04)" id="f10b924d-96ce-47a9-bae6-f3f27a3a9656"  >
<path style="stroke: rgb(0,0,0); stroke-width: 0; stroke-dasharray: none; stroke-linecap: butt; stroke-dashoffset: 0; stroke-linejoin: miter; stroke-miterlimit: 4; fill: rgb(0,0,0); fill-rule: nonzero; opacity: 1;" vector-effect="non-scaling-stroke"  transform=" translate(-16, -16)" d="M 1.855 30.55 L 30.155 30.55 L 30.155 32 L 1.8550000000000004 32 z M 2.9699999999999998 27.75 L 29.083 27.75 L 29.083 29.75 L 2.97 29.75 z M 2.804 4.882 L 28.778 4.882 L 28.778 7.6819999999999995 L 2.804 7.6819999999999995 z M 2.9699999999999998 4.045 L 28.6 4.045 L 29.380000000000003 3.1799999999999997 L 15.8 0 L 2.2 3.18 z M 6.55 16.505000000000003 L 6.438 12.405000000000003 L 6.242 8.535000000000004 C 6.237 8.435000000000004 6.189 8.400000000000004 6.097 8.379000000000003 C 5.341125057746955 8.215015383628637 4.558874942253041 8.215015383628636 3.802999999999996 8.379000000000003 C 3.7110000000000003 8.399000000000003 3.6630000000000003 8.423000000000004 3.6580000000000004 8.535000000000004 L 3.462 12.405000000000005 L 3.35 16.505000000000003 L 3.36 19.419000000000004 L 3.445 22.651000000000003 L 3.6279999999999997 26.116000000000003 L 3.6799999999999997 26.773000000000003 C 4.095132860497296 26.8843550463587 4.522269873976405 26.94479896336046 4.951999999999996 26.953000000000003 C 5.374 26.948000000000004 5.797 26.883000000000003 6.224 26.773000000000003 L 6.276 26.116000000000003 L 6.459 22.651000000000003 L 6.544 19.419000000000004 L 6.553999999999999 16.505000000000003 z M 13.622 16.505000000000003 L 13.51 12.405000000000003 L 13.314 8.535000000000004 C 13.309 8.435000000000004 13.261 8.400000000000004 13.169 8.379000000000003 C 12.413125057746955 8.215015383628637 11.63087494225304 8.215015383628636 10.874999999999996 8.379000000000001 C 10.783 8.399000000000003 10.735 8.423000000000004 10.73 8.535000000000004 L 10.534 12.405000000000005 L 10.422 16.505000000000003 L 10.432 19.419000000000004 L 10.517000000000001 22.651000000000003 L 10.700000000000001 26.116000000000003 L 10.752 26.773000000000003 C 11.1672115147514 26.883969202192034 11.594301365334758 26.944406445199114 12.023999999999997 26.953000000000003 C 12.446000000000002 26.948000000000004 12.869000000000002 26.883000000000003 13.296000000000001 26.773000000000003 L 13.348 26.116000000000003 L 13.530000000000001 22.651000000000003 L 13.615000000000002 19.419000000000004 L 13.625000000000002 16.505000000000003 z M 21.823999999999998 16.505000000000003 L 21.712 12.405000000000003 L 21.516 8.535000000000004 C 21.511 8.435000000000004 21.462999999999997 8.400000000000004 21.371 8.379000000000003 C 20.991 8.296000000000003 20.607999999999997 8.257000000000003 20.224 8.256000000000004 C 19.8383756470233 8.25600379082186 19.453856923139654 8.297238143949748 19.076999999999998 8.379000000000003 C 18.985000000000003 8.399000000000003 18.937 8.423000000000004 18.932000000000002 8.535000000000004 L 18.736 12.405000000000005 L 18.624000000000002 16.505000000000003 L 18.634000000000004 19.419000000000004 L 18.719000000000005 22.651000000000003 L 18.902000000000005 26.116000000000003 L 18.954000000000004 26.773000000000003 C 19.369211514751402 26.883969202192034 19.796301365334763 26.944406445199114 20.226000000000003 26.953000000000003 C 20.648000000000003 26.948000000000004 21.071 26.883000000000003 21.498 26.773000000000003 L 21.55 26.116000000000003 L 21.733 22.651000000000003 L 21.818 19.419000000000004 L 21.828000000000003 16.505000000000003 z M 28.729999999999997 16.505000000000003 L 28.618 12.405000000000003 L 28.421999999999997 8.535000000000004 C 28.416999999999998 8.435000000000004 28.368999999999996 8.400000000000004 28.276999999999997 8.379000000000003 C 27.897 8.296000000000003 27.513999999999996 8.257000000000003 27.13 8.256000000000004 C 26.7443756470233 8.25600379082186 26.359856923139652 8.297238143949748 25.982999999999997 8.379000000000003 C 25.891000000000002 8.399000000000003 25.843 8.423000000000004 25.838 8.535000000000004 L 25.642 12.405000000000005 L 25.53 16.505000000000003 L 25.540000000000003 19.419000000000004 L 25.625000000000004 22.651000000000003 L 25.807000000000002 26.116000000000003 L 25.859 26.773000000000003 C 26.2742115147514 26.883969202192034 26.70130136533476 26.944406445199114 27.131 26.953000000000003 C 27.560730126023593 26.94479896336046 27.9878671395027 26.8843550463587 28.403 26.773000000000003 L 28.455 26.116000000000003 L 28.637999999999998 22.651000000000003 L 28.723 19.419000000000004 L 28.733 16.505000000000003 z" stroke-linecap="round" />
</g>
</svg>