<?xml version="1.0" encoding="UTF-8" standalone="no" ?>
<!DOCTYPE svg PUBLIC "-//W3C//DTD SVG 1.1//EN" "http://www.w3.org/Graphics/SVG/1.1/DTD/svg11.dtd">
<svg xmlns="http://www.w3.org/2000/svg" xmlns:xlink="http://www.w3.org/1999/xlink" version="1.1" width="1080" height="1080" viewBox="0 0 1080 1080" xml:space="preserve">
<desc>Created with Fabric.js 5.2.4</desc>
<defs>
</defs>
<g transform="matrix(1 0 0 1 540 540)" id="d2cd010a-bbb6-4551-ba96-a6541ee1541e"  >
</g>
<g transform="matrix(1 0 0 1 540 540)" id="9534954d-2663-4ca3-b59e-8f74c7b17864"  >
<rect style="stroke: none; stroke-width: 1; stroke-dasharray: none; stroke-linecap: butt; stroke-dashoffset: 0; stroke-linejoin: miter; stroke-miterlimit: 4; fill: rgb(255,255,255); fill-rule: nonzero; opacity: 1; visibility: hidden;" vector-effect="non-scaling-stroke"  x="-540" y="-540" rx="0" ry="0" width="1080" height="1080" />
</g>
<g transform="matrix(7.64 0 0 7.64 255.54 82.94)"  >
<path style="stroke: none; stroke-width: 1; stroke-dasharray: none; stroke-linecap: butt; stroke-dashoffset: 0; stroke-linejoin: miter; stroke-miterlimit: 4; fill: rgb(0,0,0); fill-rule: nonzero; opacity: 1;" vector-effect="non-scaling-stroke"  transform=" translate(-71.11, -31.75)" d="M 44.34 40.687 L 43.48500000000001 38.317 L 40.58 38.317 L 39.725 40.687 L 39.019 40.687 L 41.286 34.486999999999995 C 41.332 34.373 41.480000000000004 33.916999999999994 41.480000000000004 33.815 C 41.480000000000004 33.335 40.956 33.335 40.603 33.28 L 40.603 33.03 L 42.745000000000005 33.03 L 45.525000000000006 40.698 L 44.34 40.698 z M 41.993 34.455 L 40.773 37.782 L 43.291000000000004 37.782 z M 54.1 40.687 L 52.083 37.144 L 51.376999999999995 37.144 L 51.376999999999995 40.687 L 50.123999999999995 40.687 L 50.123999999999995 34.567 C 50.123999999999995 33.473 50.123999999999995 33.427 49.041999999999994 33.267 L 49.041999999999994 33.017 L 51.96999999999999 33.017 C 53.349999999999994 33.017 55.05799999999999 33.313 55.05799999999999 35.057 C 55.05799999999999 36.207 54.397999999999996 36.757000000000005 53.31499999999999 36.937000000000005 L 55.41199999999999 40.687000000000005 L 54.111999999999995 40.687000000000005 z M 52.14 33.553999999999995 C 51.32 33.553999999999995 51.377 33.861999999999995 51.377 34.57899999999999 L 51.377 36.60699999999999 L 52.027 36.60699999999999 C 53.027 36.60699999999999 53.804 36.24199999999999 53.804 35.126999999999995 C 53.804 33.998999999999995 53.224000000000004 33.55499999999999 52.141000000000005 33.55499999999999 z M 62.665 40.8 C 60.045 40.8 59.305 39.102 59.305 36.744 C 59.305 34.544 60.035 32.984 62.485 32.984 C 63.26 32.984 64.035 33.087 64.765 33.326 L 64.833 35.229 L 64.503 35.229 C 64.47528139199989 34.98260590668596 64.39368552154079 34.745329212254724 64.264 34.534 C 63.910999999999994 33.919 63.318 33.531 62.599999999999994 33.531 C 60.879999999999995 33.531 60.651999999999994 35.431 60.651999999999994 36.744 C 60.651999999999994 38.157 61.084999999999994 40.162 62.852 40.162 C 63.604 40.162 64.232 40.013999999999996 64.846 39.582 L 64.846 40.368 C 64.128 40.688 63.444 40.801 62.658 40.801 z M 74.225 40.687 L 74.225 36.96 L 71.125 36.96 L 71.125 40.686 L 69.872 40.686 L 69.872 34.522 C 69.872 33.522 69.69 33.507999999999996 68.732 33.405 L 68.732 33.155 L 71.125 32.893 L 71.125 36.425 L 74.225 36.425 L 74.225 33.02 L 75.478 33.02 L 75.478 40.688 L 74.225 40.688 z M 79.88199999999999 40.687 L 79.88199999999999 40.402 C 80.737 40.402 80.85199999999999 40.174 80.85199999999999 39.342 L 80.85199999999999 34.442 C 80.85199999999999 33.61 80.73799999999999 33.382 79.88199999999999 33.382 L 79.88199999999999 33.1 L 83.082 33.1 L 83.082 33.385 C 82.228 33.385 82.11399999999999 33.625 82.11399999999999 34.445 L 82.11399999999999 39.345 C 82.11399999999999 40.165 82.228 40.405 83.082 40.405 L 83.082 40.69 z M 91.395 40.687 L 90.395 40.687 L 88.16199999999999 34.486999999999995 C 87.82 33.529999999999994 87.76199999999999 33.461999999999996 86.782 33.278999999999996 L 86.782 33.028999999999996 L 88.982 33.028999999999996 L 91.215 39.272999999999996 L 91.238 39.272999999999996 L 93.414 33.028999999999996 L 94.154 33.028999999999996 z M 103.17 40.687 L 98.624 40.687 L 98.624 34.567 C 98.624 33.473 98.61399999999999 33.439 97.541 33.267 L 97.541 33.017 L 103 33.017 L 103.034 34.703 L 102.71400000000001 34.703 C 102.71400000000001 33.848000000000006 102.29200000000002 33.553000000000004 101.48400000000001 33.553000000000004 L 100.584 33.553000000000004 C 100.06 33.553000000000004 99.866 33.563 99.866 34.145 L 99.866 36.412000000000006 L 101.246 36.412000000000006 C 101.896 36.412000000000006 102.07799999999999 36.11600000000001 102.17999999999999 35.535000000000004 L 102.49999999999999 35.535000000000004 L 102.49999999999999 37.928000000000004 L 102.17999999999999 37.928000000000004 C 102.17999999999999 37.290000000000006 101.907 36.94800000000001 101.246 36.94800000000001 L 99.866 36.94800000000001 L 99.866 39.48800000000001 C 99.866 40.11500000000001 100.003 40.148 100.584 40.148 L 101.849 40.148 C 102.62400000000001 40.148 102.81700000000001 39.761 102.87400000000001 39.031000000000006 L 103.194 39.031000000000006 z M 39.087 30.287 L 39.087 30.002 C 39.941 30.002 40.05500000000001 29.773999999999997 40.05500000000001 28.942 L 40.05500000000001 24.042 C 40.05500000000001 23.21 39.94100000000001 22.982000000000003 39.087 22.982000000000003 L 39.087 22.7 L 42.287000000000006 22.7 L 42.287000000000006 22.985 C 41.43200000000001 22.985 41.31700000000001 23.224999999999998 41.31700000000001 24.044999999999998 L 41.31700000000001 28.945 C 41.31700000000001 29.765 41.431000000000004 30.005 42.287000000000006 30.005 L 42.287000000000006 30.29 z" stroke-linecap="round" />
</g>
<g transform="matrix(7.64 0 0 7.64 89.21 42.47)"  >
<path style="stroke: none; stroke-width: 1; stroke-dasharray: none; stroke-linecap: butt; stroke-dashoffset: 0; stroke-linejoin: miter; stroke-miterlimit: 4; fill: rgb(0,0,0); fill-rule: nonzero; opacity: 1;" vector-effect="non-scaling-stroke"  transform=" translate(-49.34, -26.45)" d="M 51.608 30.288 L 47.848 23.805 L 47.824999999999996 23.805 L 47.824999999999996 30.288 L 47.107 30.288 L 47.107 24.088 C 47.107 23.018 46.937 23.063000000000002 45.967 22.880000000000003 L 45.967 22.630000000000003 L 48.370999999999995 22.630000000000003 L 51.971 28.828000000000003 L 51.994 28.828000000000003 L 51.994 22.62 L 52.712 22.62 L 52.712 30.288 z" stroke-linecap="round" />
</g>
<g transform="matrix(7.64 0 0 7.64 172.4 42.48)"  >
<path style="stroke: none; stroke-width: 1; stroke-dasharray: none; stroke-linecap: butt; stroke-dashoffset: 0; stroke-linejoin: miter; stroke-miterlimit: 4; fill: rgb(0,0,0); fill-rule: nonzero; opacity: 1;" vector-effect="non-scaling-stroke"  transform=" translate(-60.23, -26.45)" d="M 62.876 24.306 C 62.876 23.406000000000002 62.489 23.156000000000002 61.634 23.156000000000002 L 60.859 23.156000000000002 L 60.859 30.288000000000004 L 59.606 30.288000000000004 L 59.606 23.156000000000006 L 58.82 23.156000000000006 C 57.954 23.156000000000006 57.658 23.406000000000006 57.59 24.273000000000007 L 57.27 24.273000000000007 L 57.316 22.621000000000006 L 63.150000000000006 22.621000000000006 L 63.196000000000005 24.307000000000006 z" stroke-linecap="round" />
</g>
<g transform="matrix(7.64 0 0 7.64 243.31 42.47)"  >
<path style="stroke: none; stroke-width: 1; stroke-dasharray: none; stroke-linecap: butt; stroke-dashoffset: 0; stroke-linejoin: miter; stroke-miterlimit: 4; fill: rgb(0,0,0); fill-rule: nonzero; opacity: 1;" vector-effect="non-scaling-stroke"  transform=" translate(-69.52, -26.45)" d="M 72.322 30.288 L 67.776 30.288 L 67.776 24.17 C 67.776 23.076 67.76599999999999 23.042 66.694 22.87 L 66.694 22.62 L 72.152 22.62 L 72.186 24.306 L 71.86600000000001 24.306 C 71.86600000000001 23.451 71.44400000000002 23.156000000000002 70.63600000000001 23.156000000000002 L 69.736 23.156000000000002 C 69.212 23.156000000000002 69.018 23.166000000000004 69.018 23.748 L 69.018 26.015 L 70.398 26.015 C 71.048 26.015 71.22999999999999 25.719 71.332 25.138 L 71.65199999999999 25.138 L 71.65199999999999 27.531000000000002 L 71.332 27.531000000000002 C 71.332 26.893 71.059 26.551000000000002 70.398 26.551000000000002 L 69.018 26.551000000000002 L 69.018 29.091 C 69.018 29.718 69.155 29.751 69.736 29.751 L 71 29.751 C 71.775 29.751 71.968 29.364 72.025 28.634 L 72.345 28.634 z" stroke-linecap="round" />
</g>
<g transform="matrix(7.64 0 0 7.64 320.44 42.48)"  >
<path style="stroke: none; stroke-width: 1; stroke-dasharray: none; stroke-linecap: butt; stroke-dashoffset: 0; stroke-linejoin: miter; stroke-miterlimit: 4; fill: rgb(0,0,0); fill-rule: nonzero; opacity: 1;" vector-effect="non-scaling-stroke"  transform=" translate(-79.62, -26.45)" d="M 81.494 30.288 L 79.477 26.745 L 78.771 26.745 L 78.771 30.288 L 77.518 30.288 L 77.518 24.17 C 77.518 23.076 77.518 23.03 76.436 22.87 L 76.436 22.62 L 79.364 22.62 C 80.744 22.62 82.452 22.916 82.452 24.66 C 82.452 25.81 81.792 26.36 80.709 26.54 L 82.805 30.29 L 81.50500000000001 30.29 z M 79.534 23.156 C 78.71400000000001 23.156 78.771 23.464 78.771 24.180999999999997 L 78.771 26.208999999999996 L 79.421 26.208999999999996 C 80.421 26.208999999999996 81.19800000000001 25.843999999999998 81.19800000000001 24.728999999999996 C 81.19800000000001 23.600999999999996 80.61800000000001 23.156999999999996 79.53500000000001 23.156999999999996 z" stroke-linecap="round" />
</g>
<g transform="matrix(7.64 0 0 7.64 399.22 42.47)"  >
<path style="stroke: none; stroke-width: 1; stroke-dasharray: none; stroke-linecap: butt; stroke-dashoffset: 0; stroke-linejoin: miter; stroke-miterlimit: 4; fill: rgb(0,0,0); fill-rule: nonzero; opacity: 1;" vector-effect="non-scaling-stroke"  transform=" translate(-49.34, -26.45)" d="M 51.608 30.288 L 47.848 23.805 L 47.824999999999996 23.805 L 47.824999999999996 30.288 L 47.107 30.288 L 47.107 24.088 C 47.107 23.018 46.937 23.063000000000002 45.967 22.880000000000003 L 45.967 22.630000000000003 L 48.370999999999995 22.630000000000003 L 51.971 28.828000000000003 L 51.994 28.828000000000003 L 51.994 22.62 L 52.712 22.62 L 52.712 30.288 z" stroke-linecap="round" />
</g>
<g transform="matrix(7.64 0 0 7.64 480.66 42.47)"  >
<path style="stroke: none; stroke-width: 1; stroke-dasharray: none; stroke-linecap: butt; stroke-dashoffset: 0; stroke-linejoin: miter; stroke-miterlimit: 4; fill: rgb(0,0,0); fill-rule: nonzero; opacity: 1;" vector-effect="non-scaling-stroke"  transform=" translate(-69.52, -26.45)" d="M 72.322 30.288 L 67.776 30.288 L 67.776 24.17 C 67.776 23.076 67.76599999999999 23.042 66.694 22.87 L 66.694 22.62 L 72.152 22.62 L 72.186 24.306 L 71.86600000000001 24.306 C 71.86600000000001 23.451 71.44400000000002 23.156000000000002 70.63600000000001 23.156000000000002 L 69.736 23.156000000000002 C 69.212 23.156000000000002 69.018 23.166000000000004 69.018 23.748 L 69.018 26.015 L 70.398 26.015 C 71.048 26.015 71.22999999999999 25.719 71.332 25.138 L 71.65199999999999 25.138 L 71.65199999999999 27.531000000000002 L 71.332 27.531000000000002 C 71.332 26.893 71.059 26.551000000000002 70.398 26.551000000000002 L 69.018 26.551000000000002 L 69.018 29.091 C 69.018 29.718 69.155 29.751 69.736 29.751 L 71 29.751 C 71.775 29.751 71.968 29.364 72.025 28.634 L 72.345 28.634 z" stroke-linecap="round" />
</g>
<g transform="matrix(7.64 0 0 7.64 556.7 42.48)"  >
<path style="stroke: none; stroke-width: 1; stroke-dasharray: none; stroke-linecap: butt; stroke-dashoffset: 0; stroke-linejoin: miter; stroke-miterlimit: 4; fill: rgb(0,0,0); fill-rule: nonzero; opacity: 1;" vector-effect="non-scaling-stroke"  transform=" translate(-60.23, -26.45)" d="M 62.876 24.306 C 62.876 23.406000000000002 62.489 23.156000000000002 61.634 23.156000000000002 L 60.859 23.156000000000002 L 60.859 30.288000000000004 L 59.606 30.288000000000004 L 59.606 23.156000000000006 L 58.82 23.156000000000006 C 57.954 23.156000000000006 57.658 23.406000000000006 57.59 24.273000000000007 L 57.27 24.273000000000007 L 57.316 22.621000000000006 L 63.150000000000006 22.621000000000006 L 63.196000000000005 24.307000000000006 z" stroke-linecap="round" />
</g>
</svg>