<svg viewBox="0 0 100 100" xmlns="http://www.w3.org/2000/svg"><path d="m31.9543923 73.9149367c0-18.440045.603017-35.3592066.3602093-52.5745402-.0773783-5.653951 4.1530791-8.1634087 10.2352789-9.3814496 17.2673638-3.42065373 37.0001598-7.82587936 54.6584174-11.9589469 0 23.9886015.5483185 47.2060884-.2161255 70.3795497-.4095713 12.145722-20.1890611 20.8627857-31.2274732 15.3022223-5.333765-2.6908965-8.0860305-7.2201942-5.8207146-13.6265823 3.5820808-10.187251 14.2989729-15.5196819 25.5108191-12.5673002 1.4061502.3735503 2.796291.8204766 5.3524425 1.5755819 0-14.0534969.0173434-27.5013087-.0200116-40.9531228 0-1.4408369-.3028426-2.8870103-.5816712-5.3017464-17.1019344 3.8048769-33.7516061 7.5043593-51.4939125 11.4479834 0 15.9732788.3548728 31.6904088-.1947798 47.3808566-.197448 5.7660161.985906 14.078845-3.4766863 18.8242682-5.7326634 6.0928726-16.7590685 8.9091756-24.6890083 6.8920035-6.59583148-1.6836447-10.0845247-9.2440364-7.48968404-16.2494392 3.30325217-8.9465303 15.93192144-13.9307589 25.10391604-11.2131803 1.8930997.5563232 3.9889838 2.0238423 3.9889838 2.0238423" fill-rule="evenodd"/></svg>