<?xml version="1.0" encoding="iso-8859-1"?>
<!-- Generator: Adobe Illustrator 18.0.0, SVG Export Plug-In . SVG Version: 6.00 Build 0)  -->
<!DOCTYPE svg PUBLIC "-//W3C//DTD SVG 1.1//EN" "http://www.w3.org/Graphics/SVG/1.1/DTD/svg11.dtd">
<svg version="1.1" id="Capa_1" xmlns="http://www.w3.org/2000/svg" xmlns:xlink="http://www.w3.org/1999/xlink" x="0px" y="0px"
	 viewBox="0 0 297 297" style="enable-background:new 0 0 297 297;" xml:space="preserve">
<path d="M263.612,0H33.388c-5.504,0-9.967,4.463-9.967,9.967v277.066c0,5.504,4.463,9.967,9.967,9.967h230.225
	c5.504,0,9.967-4.463,9.967-9.967V9.967C273.579,4.463,269.116,0,263.612,0z M72.755,166.24h-29.4v-35.48h29.4V166.24z
	 M92.688,112.289h111.625v72.422H92.688V112.289z M224.245,130.76h29.4v35.48h-29.4V130.76z M224.245,110.827V75.346h29.4v35.481
	H224.245z M204.313,92.356H92.688V19.933h111.625V92.356z M72.755,110.827h-29.4V75.346h29.4V110.827z M43.355,186.173h29.4v35.481
	h-29.4V186.173z M92.688,204.645h111.625v72.423H92.688V204.645z M224.245,186.173h29.4v35.481h-29.4V186.173z M253.645,55.413
	h-29.4v-35.48h29.4V55.413z M72.755,19.933v35.48h-29.4v-35.48H72.755z M43.355,241.587h29.4v35.481h-29.4V241.587z
	 M224.245,277.067v-35.481h29.4v35.481H224.245z"/>
<g>
</g>
<g>
</g>
<g>
</g>
<g>
</g>
<g>
</g>
<g>
</g>
<g>
</g>
<g>
</g>
<g>
</g>
<g>
</g>
<g>
</g>
<g>
</g>
<g>
</g>
<g>
</g>
<g>
</g>
</svg>
