<?xml version="1.0" encoding="utf-8"?>
<!-- Generator: Adobe Illustrator 16.0.0, SVG Export Plug-In . SVG Version: 6.00 Build 0)  -->
<!DOCTYPE svg PUBLIC "-//W3C//DTD SVG 1.1//EN" "http://www.w3.org/Graphics/SVG/1.1/DTD/svg11.dtd">
<svg version="1.1" id="Layer_1" xmlns="http://www.w3.org/2000/svg" xmlns:xlink="http://www.w3.org/1999/xlink" x="0px" y="0px"
	 width="1000px" height="267.965px" viewBox="-202.36 286.963 1000 267.965" enable-background="new -202.36 286.963 1000 267.965"
	 xml:space="preserve">
<g>
	<path fill="#A92E34" d="M-106.745,507.092V308.957h-28.134v202.239c0,2.272-0.552,3.976-2.76,3.976h-2.56V309.031h-28.223v206.029
		h-3.222c-1.702,0-2.558-1.416-2.558-3.976V308.957h-28.16v197.858c0,19.896,10.232,30.139,30.138,30.139h35.246
		c21.038,0,30.139-11.089,30.139-29.853 M-33.493,514.583V339.465c0-17.605-11.917-26.725-29.852-26.725
		c-17.938,0-29.854,7.104-29.854,27.58v71.072h27.01v-73.354c0-2.273,0.856-3.405,2.762-3.405c1.47-0.1,2.743,1.012,2.843,2.482
		c0.008,0.12,0.008,0.241,0,0.361v92.395h-9.202c-17.062,0-23.597,7.962-23.597,24.452v36.102c0,15.646,5.982,25.031,21.323,25.031
		c4.831,0,9.939-2.558,12.515-6.239v5.402h25.77 M-60.788,490.167c0,1.988-0.551,3.129-2.76,3.129s-2.762-0.854-2.762-2.76v-34.667
		c0-1.987,0-4.261,2.56-4.261h3.129v38.652 M33.798,527.567V314.525H6.771l0.275,174.852c-1.141,1.702-0.275,3.976-3.129,3.976
		c-2.273,0-2.762-3.976-2.762-3.976V314.525h-26.99v176.812c0,15.645,4.831,24.166,20.181,24.166c4.832,0,10.234-2.56,12.885-6.239
		L6.953,529.16c0,2.271-0.552,3.698-2.76,3.698c-2.209,0-2.762-1.702-2.762-3.698v-7.39h-27.101v7.39
		c0,17.604,11.917,25.768,29.853,25.768c17.937,0,29.854-7.104,29.854-27.581 M108.441,500.493v-34.032
		c0-8.53-4.831-16.196-12.221-18.772c8.531-2.273,12.221-8.816,12.221-17.062v-97.761c0-24.737-13.647-29.854-32.973-29.854H46.479
		V530.99h28.989c22.454,0,32.973-7.104,32.973-30.414 M80.318,441.744c0,2.557-1.417,4.545-3.976,4.545h-1.703V323.498h1.419
		c3.129,0,4.26,1.702,4.26,3.975V441.744 M80.318,505.701c0,2.273-1.417,3.976-4.26,3.976h-1.419v-40.63h1.703
		c2.559,0,3.976,1.988,3.976,4.833v31.84 M184.934,544.372V352.303c0-19.326-13.095-29.312-32.742-29.312
		c-19.649,0-32.744,7.795-32.744,30.369v77.947h29.634v-80.432c0-2.485,0.92-3.745,3.129-3.745c1.622-0.101,3.019,1.135,3.118,2.759
		c0.009,0.119,0.009,0.24,0,0.36v101.119h-9.976c-18.709,0-25.768,8.743-25.768,26.816v39.617c0,17.145,6.554,27.442,23.375,27.442
		c5.318,0,10.915-2.806,13.805-6.854v5.927h28.371 M155.504,517.501c0,2.208-0.626,3.431-3.13,3.431
		c-2.503,0-3.129-0.92-3.129-3.129V479.76c0-2.209,0-4.675,2.807-4.675h3.433v42.405 M255.924,468.992h-27.297v38.946
		c0,1.702-0.854,2.76-3.128,2.76c-1.702,0-2.558-0.855-2.558-2.76V353.885c0-2.273,0.855-3.405,2.76-3.405
		c1.702,0,2.762,1.142,2.762,3.405v73.916h27.295v-71.928c0-17.604-12.221-26.725-30.14-26.725
		c-17.917,0-29.853,7.085-29.853,27.562v149.23c0,17.605,11.917,26.726,29.853,26.726c17.938,0,29.568-7.104,29.854-27.581
		l0.275-36.102 M329.241,526.04v-64.916c0-8.531-4.833-16.197-12.223-18.774c8.531-2.271,12.223-8.814,12.223-17.06V314.544h-27.295
		v122.424c0,3.129-0.277,4.26-2.273,4.26h-3.129V286.963h-27.471v238.994h27.295v-63.085h3.13c1.988,0,2.272,2.274,2.272,3.977
		v59.118h27.295"/>
	<path d="M418.958,536.743V314.571c0-1.656-0.507-3.57-1.528-5.815c-0.92-2.246-2.762-3.369-6.13-3.369h-7.361V536.65h-21.12
		V305.479h-7.96c-3.064,0-5.108,1.123-6.13,3.368c-0.92,2.246-1.224,4.188-1.224,5.816v222.062H346.34V318.252
		c0-9.598,2.245-16.537,6.735-20.826c4.49-4.49,11.559-6.735,21.139-6.735h37.979c10.122,0,17.356,2.347,21.461,7.04
		c4.288,4.491,6.442,11.227,6.442,20.218V536.65h-21.112 M487.839,531.109v-8.575c-0.615,1.84-1.84,3.469-3.367,4.904
		c-1.754,1.416-3.717,2.552-5.816,3.369c-2.245,0.92-5.209,1.224-8.881,1.224c-6.441,0-11.228-1.842-14.079-5.521
		c-2.762-3.885-4.29-9.802-4.29-17.761V467.98c0-8.172,1.528-13.987,4.603-17.458c3.073-3.47,8.466-5.208,16.232-5.208h14.403
		v-108.73c0-2.246-0.737-4.086-2.144-5.521c-1.369-1.621-3.403-2.523-5.522-2.448c-2.762,0-4.905,0.92-6.129,2.762
		c-1.003,1.773-1.529,3.776-1.528,5.815v87.296h-19.904v-84.535c0-9.801,2.346-16.639,7.039-20.54
		c4.906-3.884,11.743-5.816,20.541-5.816c8.797,0,15.516,2.145,20.217,6.441c4.906,4.289,7.364,10.519,7.364,18.682v192.336h-18.756
		 M486.597,459.993h-7.959c-3.065,0-5.108,0.92-6.13,3.063c-0.92,1.84-1.224,3.976-1.224,6.442v39.203
		c0,2.245,0.616,4.187,1.84,5.815c1.224,1.427,3.165,2.145,5.815,2.145c2.762,0,4.786-0.92,5.817-2.76
		c1.225-1.842,1.84-3.683,1.84-5.522v-48.36 M550.417,423.07v-81.581c0.04-1.986-0.669-3.915-1.987-5.402
		c-1.142-1.702-2.761-2.559-5.136-2.559c-2.65,0-4.545,0.856-5.686,2.559c-0.948,1.519-1.418,3.313-1.418,5.402v160.816
		c-0.056,1.941,0.544,3.844,1.702,5.401c1.325,1.326,3.037,1.988,5.136,1.988c2.272,0,4.077-0.662,5.401-1.988
		c1.318-1.485,2.027-3.414,1.987-5.401v-44.937h18.774l-0.276,41.781c0,9.201-2.273,15.461-6.811,19.049
		c-4.36,3.681-10.609,5.402-18.771,5.402c-8.164,0-14.495-1.987-19.05-5.981c-4.363-3.976-6.442-9.755-6.442-17.339V344.618
		c0-9.203,2.181-15.461,6.442-19.05c4.545-3.681,10.896-5.401,19.05-5.401c8.152,0,14.492,1.986,19.048,5.981
		c4.557,3.994,6.811,9.755,6.811,17.338v79.603h-18.774 M615.518,538.123V351.906c0-2.466-0.46-4.647-1.417-6.441
		c-0.756-1.896-2.65-2.761-5.688-2.761s-5.025,0.947-5.981,2.761c-0.793,2.086-1.18,4.303-1.142,6.534v186.105h-18.773V299.019
		h18.479v35.54c0.666-1.661,1.742-3.128,3.129-4.26c1.555-1.281,3.283-2.335,5.135-3.129c2.098-0.948,4.933-1.417,8.531-1.417
		c4.932,0,8.816,1.519,11.659,4.546c3.038,2.761,4.547,7.96,4.547,15.35v192.365h-18.479 M665.45,315.693
		c0,1.804-0.975,3.682-2.943,5.642c-1.97,1.961-4.603,2.945-7.676,2.945c-3.072,0-5.723-0.976-7.675-2.945
		c-1.803-1.96-2.715-3.838-2.715-5.642c0-1.96,0.901-3.91,2.715-5.871c1.96-2.116,4.603-3.165,7.675-3.165
		c3.011,0,5.495,1.058,7.363,3.165c2.115,2.116,3.165,4.068,3.165,5.871 M645.335,514.619V336.087h18.772v178.532H645.335
		 M712.541,530.54V341.885c0-1.519-0.46-3.313-1.417-5.401c-0.754-2.274-2.76-3.405-5.981-3.405c-3.037,0-4.933,1.141-5.688,3.405
		c-0.754,2.089-1.142,3.883-1.142,5.401V530.54h-18.771V319.431h18.771l-0.275,7.675c0.666-1.663,1.742-3.128,3.129-4.261
		c1.555-1.281,3.283-2.335,5.135-3.13c2.1-0.947,4.933-1.416,8.531-1.416c10.822,0,16.196,7.205,16.196,21.607v190.652h-18.405
		 M797.64,506.687c0,9.801-2.448,16.638-7.362,20.541c-4.602,3.682-11.56,5.521-20.541,5.521c-8.78,0-15.617-2.144-20.541-6.441
		c-4.602-4.29-7.039-10.52-7.039-18.682V339.74c0-9.801,2.346-16.639,7.039-20.54c4.906-3.884,11.743-5.816,20.541-5.816
		c8.577,0,15.313,2.246,20.219,6.736c5.106,4.491,7.656,11.025,7.656,19.602v120.095h-35.504v49.926c0,2.245,0.616,4.187,1.84,5.815
		c1.463,1.444,3.458,2.221,5.514,2.144c2.447,0,4.389-0.735,5.815-2.144c1.417-1.603,2.181-3.677,2.145-5.815v-29.725h20.219v26.65
		 M777.421,336.363c0.027-2.138-0.736-4.209-2.145-5.816c-1.224-1.84-3.063-2.761-5.521-2.761c-2.762,0-4.906,0.921-6.13,2.761
		c-1.003,1.774-1.529,3.778-1.527,5.816v108.426h15.314V336.363"/>
</g>
</svg>
